<svg id="Layer_1" data-name="Layer 1" xmlns="http://www.w3.org/2000/svg" viewBox="0 0 512 512"><defs><style>.cls-1{fill:#d9e4e8;}.cls-2{fill:#198fd8;}.cls-3{fill:#141f38;}</style></defs><title>closed-filled</title><rect class="cls-1" x="12.8" y="192" width="486.4" height="281.6" rx="51.2" ry="51.2"/><path class="cls-2" d="M256,76.8A12.8,12.8,0,1,0,243.2,64,12.82,12.82,0,0,0,256,76.8Z"/><path class="cls-3" d="M448,179.2H402.1L293.77,70.87a38.4,38.4,0,1,0-75.54,0L109.9,179.2H64a64.08,64.08,0,0,0-64,64V422.4a64.08,64.08,0,0,0,64,64H448a64.08,64.08,0,0,0,64-64V243.2A64.08,64.08,0,0,0,448,179.2ZM256,51.2A12.8,12.8,0,1,1,243.2,64,12.82,12.82,0,0,1,256,51.2ZM231.64,93.66a38.32,38.32,0,0,0,48.72,0L365.9,179.2H146.1ZM486.4,422.4A38.44,38.44,0,0,1,448,460.8H64a38.44,38.44,0,0,1-38.4-38.4V243.2A38.44,38.44,0,0,1,64,204.8H448a38.44,38.44,0,0,1,38.4,38.4ZM112.07,324v17.64c0,6.83,3.81,10.29,11.42,10.29,5.62,0,9.26-2.07,10.9-6.31,1-2.51,2.07-3.12,4.5-2.16l6.66,2.34c2.33.78,3,2.33,2.16,4.49-3.55,9.69-11.59,14.53-24.22,14.53-16.17,0-25.52-8.74-25.52-23.26V324.06c0-14.53,9.35-23.26,25.52-23.26,12.63,0,20.67,4.84,24.22,14.53.87,2.16.17,3.71-2.16,4.49l-6.66,2.34c-2.51.78-3.55.34-4.5-2.16-1.64-4.24-5.28-6.31-10.9-6.31C115.88,313.69,112.07,317.15,112.07,324Zm83.17,30.18V360c0,2.68-.87,3.55-3.55,3.55H158.83c-2.68,0-3.55-.86-3.55-3.55V305.64c0-2.68.86-3.54,3.55-3.54h7c2.68,0,3.55.86,3.55,3.54v45H191.7C194.2,350.62,195.24,351.66,195.24,354.16Zm29.3-53.36c-16.17,0-25.52,8.74-25.52,23.26v17.47c0,14.53,9.35,23.26,25.52,23.26s25.6-8.74,25.6-23.26V324.06C250.14,309.54,240.8,300.8,224.54,300.8Zm11.5,41c0,6.75-3.81,10.12-11.5,10.12-7.35,0-11.42-3.46-11.42-10.12v-18c0-6.66,4.07-10.12,11.42-10.12,7.69,0,11.5,3.37,11.5,10.12Zm66.3-9.77c2.68,2.59,4.84,7.09,4.84,13a17.33,17.33,0,0,1-6.92,14.36c-4.58,3.63-10.9,5.45-18.77,5.45-12.71,0-20.84-4.67-24.3-14-.78-2.5-.18-3.55,2.25-4.49l6.31-2.25c2.51-1,3.46-.61,4.58,2.07q2.72,6,11.15,6c7.7,0,11.51-2.25,11.51-6.84,0-3.89-4.15-5.44-11.67-6.22-2.77-.35-4.93-.69-6.57-1a36.55,36.55,0,0,1-6.14-1.65,17.63,17.63,0,0,1-5.88-3.11c-2.86-2.42-5.37-7-5.37-13.15,0-11.5,9-19.37,24.65-19.37,12.37,0,19.11,4.06,23.18,12.71,1.12,2.42.6,3.64-1.91,4.67L296.73,321c-2.33,1-3.2.61-4.5-1.73-1.91-3.8-5.28-5.7-10.21-5.7-7.18,0-10.2,1.81-10.2,6,0,2.16,1.21,3.72,4,4.67a34.44,34.44,0,0,0,9,1.73c4.85.6,7.78,1,12.2,2.77A18.9,18.9,0,0,1,302.35,332ZM357,354.16V360c0,2.68-.87,3.55-3.54,3.55H317.8c-2.68,0-3.54-.86-3.54-3.55V305.64c0-2.68.86-3.54,3.54-3.54h34.77c2.68,0,3.55.86,3.55,3.54v5.8c0,2.68-.86,3.46-3.55,3.46H328.35v11.15h19.89c2.68,0,3.55.78,3.55,3.46v5.79c0,2.68-.86,3.55-3.55,3.55H328.35v11.76h25.08C355.94,350.62,357,351.66,357,354.16Zm31.54-52.07H368.28c-2.68,0-3.54.86-3.54,3.54V360c0,2.68.86,3.55,3.54,3.55h20.24c16.26,0,25.51-8.74,25.51-23.26V325.36C414,310.83,404.78,302.1,388.52,302.1ZM400,340.24c0,6.92-3.89,10.38-11.59,10.38h-9.6V314.9h9.6c7.7,0,11.59,3.46,11.59,10.46Z"/></svg>